<?xml version="1.0" standalone="no"?>
<!DOCTYPE svg PUBLIC "-//W3C//DTD SVG 20010904//EN"
 "http://www.w3.org/TR/2001/REC-SVG-20010904/DTD/svg10.dtd">
<svg version="1.0" xmlns="http://www.w3.org/2000/svg"
 width="1253.000000pt" height="1280.000000pt" viewBox="0 0 1253.000000 1280.000000"
 preserveAspectRatio="xMidYMid meet">
<metadata>
Created by potrace 1.15, written by Peter Selinger 2001-2017
</metadata>
<g transform="translate(0.000000,1280.000000) scale(0.100000,-0.100000)"
fill="#03a9f4" stroke="none">
<path d="M5966 12784 c-23 -23 -32 -64 -15 -75 17 -10 48 -2 69 17 13 13 13
16 0 25 -12 8 -11 10 5 7 15 -2 21 -12 23 -36 6 -64 -22 -73 -118 -37 -58 22
-158 16 -225 -14 -151 -67 -201 -226 -104 -335 l29 -34 -38 -48 c-58 -73 -133
-139 -191 -168 -28 -15 -51 -33 -51 -41 0 -11 -12 -15 -46 -15 -59 0 -138 34
-153 66 -6 13 -22 29 -35 36 -36 16 -76 -12 -76 -51 0 -44 -77 -123 -157 -163
-56 -27 -75 -32 -141 -32 -60 1 -87 6 -122 23 -79 40 -81 44 -54 98 13 25 24
53 24 61 0 10 6 12 18 7 9 -4 36 -10 59 -12 35 -5 45 -1 67 20 36 36 35 80 -3
118 -32 32 -57 36 -86 15 -18 -13 -18 -14 2 -20 22 -7 37 -32 27 -47 -9 -15
-50 -10 -65 7 -8 9 -25 39 -39 68 -44 89 -147 122 -246 77 -23 -10 -57 -22
-75 -26 -79 -17 -148 -88 -150 -155 -1 -19 2 -60 6 -91 7 -51 6 -57 -15 -72
-30 -21 -42 -13 -38 26 4 40 -15 45 -47 13 -31 -31 -33 -74 -5 -109 40 -51
109 -39 152 27 l22 33 40 -29 c22 -16 60 -34 84 -40 42 -10 43 -12 36 -42 -16
-74 -127 -189 -227 -236 -105 -50 -222 -36 -286 34 -32 34 -75 35 -96 2 -8
-13 -13 -30 -9 -39 15 -41 -101 -138 -219 -182 -81 -30 -109 -32 -105 -7 4 23
-9 25 -57 12 -22 -6 -65 -10 -95 -8 -49 3 -55 5 -52 23 14 92 13 124 -6 167
-15 36 -62 84 -100 104 -1 0 4 16 11 34 29 67 -18 150 -84 150 -42 0 -88 -26
-95 -55 -8 -33 4 -51 20 -29 10 14 16 14 35 5 37 -20 21 -43 -48 -70 -72 -28
-150 -94 -175 -145 -22 -47 -20 -121 4 -172 30 -61 100 -122 150 -130 22 -4
40 -9 40 -13 0 -3 -31 -52 -69 -108 -61 -91 -66 -103 -53 -117 14 -13 12 -20
-13 -56 -65 -94 -160 -150 -252 -150 -47 0 -61 4 -71 20 -12 20 -47 26 -68 12
-23 -15 -32 -45 -22 -73 21 -62 -72 -193 -192 -272 l-55 -35 -67 16 c-56 14
-68 21 -68 37 0 11 -3 30 -6 41 -5 21 -4 21 39 11 56 -13 95 1 137 50 40 45
41 86 1 103 -37 15 -65 10 -69 -14 -6 -29 17 -45 33 -22 13 18 35 15 35 -5 0
-16 -57 -69 -74 -69 -9 0 -41 23 -72 51 -90 81 -180 112 -264 89 -35 -9 -62
-30 -131 -99 -97 -98 -113 -132 -107 -220 5 -69 34 -129 94 -193 24 -26 44
-52 44 -58 0 -20 -29 -68 -45 -74 -43 -16 -61 5 -27 30 21 16 4 38 -24 32 -43
-8 -18 -108 26 -108 11 0 40 18 65 41 49 46 64 89 47 139 l-11 30 53 0 c29 0
68 5 86 11 26 9 34 9 41 -2 27 -43 -12 -148 -83 -225 -63 -69 -217 -194 -239
-194 -20 0 -39 -28 -39 -59 0 -14 -8 -21 -27 -23 -39 -4 -62 -47 -44 -82 44
-81 -125 -313 -289 -395 l-64 -32 -22 42 -21 42 38 37 c44 42 49 69 19 117
-28 46 -55 58 -86 38 -26 -17 -31 -44 -12 -63 17 -17 58 -15 58 3 0 15 -11 19
-40 15 -13 -1 -13 1 1 15 29 30 76 -17 49 -49 -21 -26 -58 -26 -136 -1 -65 21
-83 24 -111 14 -41 -13 -96 -77 -129 -149 -14 -30 -31 -66 -38 -80 -21 -38
-46 -130 -46 -167 0 -58 25 -90 98 -127 68 -34 97 -67 90 -102 -4 -22 -43 -31
-63 -14 -21 17 -8 32 15 18 24 -15 38 -3 24 20 -24 37 -74 21 -74 -24 0 -14
10 -30 24 -39 33 -22 97 -5 126 33 18 23 21 35 15 78 l-6 51 33 6 c18 3 41 8
51 12 15 6 17 -1 17 -82 0 -142 -47 -294 -117 -377 -38 -46 -83 -76 -113 -76
-30 0 -60 -27 -60 -53 0 -10 9 -34 20 -54 21 -39 24 -72 14 -136 -5 -30 -10
-36 -24 -32 -14 4 -20 -4 -29 -42 -14 -55 -49 -119 -93 -169 -50 -56 -61 -58
-102 -20 -44 42 -95 60 -152 53 -39 -4 -44 -2 -44 15 0 29 -28 83 -57 113 -37
36 -77 33 -119 -9 -40 -40 -42 -54 -13 -90 24 -31 62 -32 67 -3 6 32 -8 69
-23 63 -8 -3 -15 -1 -15 3 0 17 32 21 58 8 38 -18 40 -52 4 -96 -82 -102 -99
-225 -48 -344 17 -39 71 -92 109 -106 42 -16 124 -13 159 5 30 16 31 15 54
-13 43 -51 105 -190 117 -258 7 -38 16 -65 23 -65 16 0 3 -48 -26 -95 -25 -41
-68 -77 -82 -69 -5 3 -20 -2 -34 -11 -20 -13 -25 -23 -22 -52 2 -29 10 -40 33
-53 43 -24 82 -85 101 -159 28 -112 0 -218 -79 -298 -22 -24 -45 -43 -50 -43
-5 0 -24 13 -43 29 -18 16 -40 34 -50 39 -15 9 -15 12 5 38 35 48 37 85 6 122
-53 64 -159 21 -140 -56 6 -23 8 -25 16 -9 14 23 59 23 59 -1 0 -38 -24 -53
-95 -62 -64 -8 -73 -12 -107 -48 -51 -55 -59 -95 -49 -230 6 -89 12 -119 28
-140 33 -45 80 -71 145 -78 48 -5 62 -12 75 -31 15 -22 15 -26 1 -40 -14 -14
-18 -13 -36 5 -24 24 -32 19 -32 -19 0 -34 41 -69 80 -69 44 0 80 35 80 77 0
35 -33 103 -51 103 -19 0 -7 16 24 31 17 9 47 36 66 60 18 24 37 45 42 47 15
6 97 -85 123 -137 97 -190 66 -352 -83 -433 -27 -15 -32 -23 -29 -49 2 -18 11
-36 21 -40 9 -5 25 -13 35 -17 48 -24 92 -156 92 -281 0 -82 0 -83 -24 -77
-22 5 -23 3 -29 -57 -5 -57 -25 -122 -42 -139 -4 -4 -25 5 -48 20 -35 23 -51
27 -113 27 -66 0 -75 -3 -112 -32 l-40 -32 -22 24 c-69 74 -192 16 -177 -82 8
-45 23 -63 54 -63 21 0 23 3 14 14 -17 20 -2 48 23 44 18 -3 22 -12 28 -78 15
-146 89 -246 191 -257 85 -10 199 43 233 108 13 25 18 28 30 18 19 -15 130
-163 136 -179 3 -10 9 -9 26 1 21 13 25 12 43 -11 39 -48 81 -149 86 -208 6
-70 -13 -132 -46 -148 -46 -23 -54 -61 -20 -95 14 -14 29 -19 45 -16 57 10
161 -130 199 -269 l17 -60 -27 -39 c-15 -22 -31 -50 -35 -62 -8 -19 -12 -20
-49 -11 l-40 10 20 36 c25 47 24 85 -2 139 -35 72 -84 81 -115 21 -18 -35 -12
-58 14 -58 27 0 33 10 21 32 -6 11 -8 22 -6 25 13 12 46 -10 57 -38 18 -43 1
-75 -54 -99 -95 -40 -176 -147 -176 -233 0 -43 22 -102 49 -132 10 -11 21 -31
24 -45 12 -46 45 -88 94 -117 42 -24 58 -28 128 -28 68 0 88 5 132 28 29 15
63 27 77 27 42 0 86 -76 56 -95 -6 -4 -18 3 -28 15 -16 20 -19 20 -31 6 -20
-24 -6 -44 34 -52 29 -5 41 -3 57 13 17 18 18 25 9 61 -7 23 -27 57 -45 77
-28 29 -40 35 -75 35 -46 0 -46 0 -26 55 8 22 14 57 15 77 1 94 125 30 204
-105 43 -73 108 -240 107 -275 0 -33 27 -72 52 -72 9 0 12 -11 9 -34 -3 -28 1
-37 22 -51 14 -10 33 -14 45 -10 90 28 291 -278 291 -444 0 -29 -2 -31 -40
-31 -22 0 -43 -1 -47 -2 -4 -2 -10 11 -15 29 -16 62 -87 91 -148 60 -19 -10
-25 -20 -25 -46 0 -60 65 -70 73 -12 3 18 -1 22 -15 19 -10 -2 -17 -12 -17
-21 1 -10 -3 -16 -10 -14 -17 6 -13 38 6 51 13 8 23 8 35 0 38 -24 29 -71 -27
-141 -52 -66 -58 -97 -31 -159 27 -60 173 -202 252 -244 90 -48 122 -41 202
42 42 44 52 49 85 46 34 -3 37 -6 37 -33 0 -23 -5 -31 -22 -33 -13 -2 -23 2
-23 8 0 6 4 9 9 6 14 -9 36 23 24 35 -17 17 -53 -7 -53 -34 0 -29 18 -47 46
-47 44 0 68 72 45 133 -9 23 -35 38 -96 54 -29 8 -30 9 -25 60 l5 52 66 -23
c158 -55 279 -142 339 -242 30 -51 35 -66 33 -116 -2 -52 0 -60 23 -75 21 -13
32 -15 55 -6 54 21 195 -31 169 -62 -7 -9 5 -22 43 -49 53 -35 98 -89 131
-153 23 -47 21 -56 -26 -81 -50 -26 -89 -78 -97 -128 l-6 -36 -60 -1 c-67 -2
-109 -22 -126 -61 -14 -30 10 -88 45 -111 23 -16 27 -16 56 1 37 22 39 51 4
64 -41 16 -57 13 -51 -11 3 -13 1 -19 -6 -16 -21 7 -19 38 4 63 29 31 54 30
76 -2 82 -119 173 -174 289 -174 93 0 147 27 189 94 24 39 29 60 30 108 l0 59
50 15 c84 25 200 36 263 24 43 -8 58 -7 63 2 11 17 53 -15 97 -72 29 -38 33
-49 28 -82 -11 -70 54 -103 108 -53 36 33 98 48 176 43 118 -9 221 -76 266
-173 30 -63 30 -71 0 -79 -14 -3 -39 -18 -57 -33 -26 -22 -33 -25 -37 -13 -3
8 -19 27 -35 43 -28 26 -66 34 -102 21 -19 -8 -45 -55 -45 -82 0 -31 38 -72
68 -72 20 0 23 3 14 12 -7 7 -12 22 -12 35 0 31 35 31 55 -1 13 -20 14 -32 6
-63 -6 -21 -11 -53 -11 -71 0 -74 70 -153 150 -168 19 -4 62 -15 95 -26 112
-37 190 -4 236 98 21 47 35 65 53 70 45 11 64 -24 27 -48 -15 -9 -17 -15 -9
-25 26 -31 83 -7 104 43 18 43 4 80 -38 103 -26 15 -62 11 -120 -14 -14 -5
-18 -2 -18 11 -1 27 -34 95 -60 122 -18 19 -19 26 -9 38 52 63 256 95 375 59
90 -27 173 -121 174 -197 0 -33 38 -62 66 -52 10 4 28 18 39 31 32 38 124 50
228 30 46 -9 101 -24 121 -32 36 -15 37 -17 22 -34 -22 -25 -21 -26 26 -40 42
-13 121 -61 134 -82 3 -6 -10 -24 -30 -41 -70 -57 -95 -153 -62 -232 14 -34
14 -35 -14 -46 -19 -8 -37 -28 -50 -55 -19 -39 -20 -47 -7 -77 18 -44 38 -59
85 -65 28 -4 43 -1 55 12 24 23 21 42 -5 41 -14 -1 -24 6 -26 18 -7 32 11 37
73 21 116 -30 234 -8 288 53 63 71 59 246 -6 301 -10 7 -17 17 -17 21 0 10
131 65 192 80 42 11 46 14 38 31 -13 24 20 42 108 59 110 22 254 -26 268 -88
10 -48 13 -51 40 -58 39 -10 62 8 78 59 3 10 36 32 73 49 61 29 79 32 183 36
l115 3 48 -55 47 -55 -21 -36 -22 -37 -23 30 c-32 40 -74 56 -131 48 -81 -11
-107 -60 -58 -106 21 -19 29 -22 43 -14 27 18 21 39 -10 37 -31 -2 -37 17 -12
37 43 36 114 -1 114 -59 0 -122 120 -260 226 -261 17 0 51 7 74 15 23 8 46 13
50 10 19 -12 109 18 144 46 70 58 106 170 85 267 -9 45 -8 57 5 77 18 28 54
40 85 30 26 -8 27 -35 2 -35 -28 0 -36 -19 -17 -38 16 -16 19 -15 42 11 26 30
31 66 12 85 -7 7 -35 12 -63 12 -65 0 -112 -28 -132 -80 l-15 -38 -46 34 c-25
20 -58 38 -73 41 -70 14 4 106 113 142 77 25 260 45 344 36 49 -5 64 -3 78 10
9 9 16 21 16 26 0 6 7 3 16 -5 34 -34 94 -9 94 40 0 53 152 123 313 144 86 12
200 3 217 -17 4 -5 5 -27 2 -51 -4 -42 -4 -42 -46 -42 -53 0 -82 -21 -97 -69
-9 -30 -9 -44 2 -67 25 -53 95 -38 87 18 -2 15 -11 24 -25 26 -28 4 -31 -22
-5 -38 15 -9 14 -10 -8 -8 -20 2 -25 8 -25 33 0 63 72 40 128 -41 52 -74 75
-87 140 -82 76 6 238 88 310 157 75 70 84 117 37 196 -28 48 -37 95 -24 129 8
20 48 21 64 1 13 -16 7 -45 -9 -45 -6 0 -8 6 -5 13 3 8 -2 20 -10 27 -13 10
-17 9 -22 -3 -19 -51 41 -80 71 -34 19 29 12 50 -23 73 -60 39 -133 14 -162
-56 -12 -28 -13 -28 -43 -15 -18 7 -40 16 -50 19 -18 6 -18 7 0 38 10 18 56
72 103 120 69 70 101 94 163 124 92 43 193 58 216 30 30 -36 109 1 97 46 -7
28 24 85 68 127 30 30 36 32 42 17 6 -16 8 -16 28 2 66 60 167 102 249 102 36
0 37 -1 37 -38 0 -49 41 -113 91 -141 37 -21 37 -22 23 -49 -7 -15 -14 -53
-14 -84 0 -49 3 -59 26 -77 34 -27 84 -27 118 0 23 18 26 26 20 53 -3 17 -10
35 -14 39 -13 15 -46 -2 -59 -29 -13 -30 -7 -45 17 -37 13 5 14 3 6 -7 -28
-29 -83 26 -69 69 4 14 20 24 48 31 78 20 118 43 171 101 79 85 107 190 73
272 -21 48 -89 105 -143 118 l-47 12 7 77 c8 95 29 181 61 241 17 32 21 49 13
57 -15 15 56 59 119 72 43 10 56 9 76 -5 20 -13 29 -14 51 -4 35 16 42 50 21
96 -15 31 -16 46 -7 93 29 160 147 277 284 283 l50 2 12 -45 c7 -25 16 -55 20
-67 6 -18 4 -23 -11 -23 -29 0 -83 -38 -93 -65 -24 -62 48 -130 112 -106 38
14 54 63 18 54 -11 -3 -27 0 -35 7 -14 11 -14 15 1 31 23 26 43 24 110 -12 49
-26 66 -30 103 -25 59 8 107 40 145 96 17 26 44 65 59 88 63 90 55 174 -24
249 -47 45 -56 64 -43 97 13 34 59 2 46 -32 -3 -11 0 -12 17 -3 26 14 35 49
23 82 -13 32 -32 47 -70 55 -26 5 -36 1 -62 -24 -25 -26 -30 -38 -30 -81 l0
-51 -50 0 c-28 0 -67 -7 -87 -15 -45 -19 -40 -20 -59 17 -13 26 -15 49 -11
113 11 149 71 267 164 322 41 24 59 28 123 28 41 0 81 4 88 8 17 11 15 62 -3
77 -43 36 21 230 111 335 l25 30 16 -22 15 -23 29 40 c30 41 103 100 123 100
7 0 18 -16 25 -36 17 -47 68 -104 108 -120 18 -8 55 -14 83 -14 44 0 50 -2 50
-21 0 -47 61 -109 107 -109 57 0 116 78 95 125 -13 29 -40 34 -38 8 1 -24 -42
-30 -50 -8 -4 9 2 28 13 44 54 72 68 113 68 202 0 78 -2 89 -27 121 -54 71
-204 111 -275 74 l-31 -15 -6 31 c-3 17 -6 75 -6 129 0 93 -1 99 -20 99 -30 0
-35 24 -23 107 20 139 104 253 177 239 60 -12 93 66 42 100 -56 36 -58 208 -4
339 22 54 26 58 86 82 l64 25 29 -28 29 -27 -38 -17 c-51 -23 -78 -60 -87
-116 -11 -78 36 -118 93 -78 26 18 28 36 6 55 -13 10 -17 10 -25 -2 -5 -8 -7
-20 -4 -27 3 -9 -1 -12 -13 -10 -12 2 -18 14 -20 39 -3 30 2 41 25 58 17 14
35 20 48 17 133 -37 271 9 322 108 9 17 20 63 25 101 4 39 11 86 14 106 18
113 -98 240 -237 256 -78 9 -110 55 -79 114 16 28 42 25 34 -5 -6 -27 6 -39
30 -30 23 9 20 37 -7 62 -48 46 -95 14 -104 -71 -6 -51 14 -98 53 -123 l25
-17 -41 -27 c-22 -15 -51 -40 -63 -57 -19 -25 -25 -29 -44 -20 -65 29 -78 200
-29 386 15 57 34 114 42 125 17 24 18 68 3 83 -8 8 -5 17 10 32 34 34 26 72
-20 95 -75 37 -76 303 -2 468 35 79 42 83 92 57 34 -18 39 -24 31 -39 -13 -24
-13 -76 0 -101 13 -23 61 -49 93 -49 32 0 49 22 45 57 -3 31 -38 44 -64 23
-21 -19 -17 -30 12 -30 14 0 23 4 19 10 -3 6 -1 10 5 10 6 0 10 -8 8 -17 -5
-27 -62 -25 -66 3 -5 35 29 63 113 92 70 24 82 31 97 62 24 47 23 132 -3 255
-24 114 -62 191 -107 218 -29 17 -38 17 -107 6 -66 -11 -80 -11 -103 2 -31 17
-39 43 -22 64 16 20 46 19 54 -1 4 -11 1 -14 -12 -10 -22 7 -47 -8 -38 -23 9
-15 49 -14 64 1 18 18 15 43 -8 63 -28 25 -67 11 -97 -34 -33 -48 -30 -83 11
-126 l35 -36 -33 -44 -33 -43 -35 46 c-74 100 -117 197 -138 312 -16 89 1 182
41 218 16 14 29 35 29 47 0 24 -29 55 -51 55 -18 0 -59 42 -88 90 -25 41 -27
60 -6 60 19 0 19 4 1 38 -29 55 -39 144 -26 221 11 67 13 71 33 64 59 -22 151
1 198 48 l21 21 26 -25 c33 -31 72 -47 117 -47 44 0 75 38 75 91 0 47 -22 71
-64 67 -40 -4 -46 -31 -15 -64 22 -23 24 -24 36 -8 10 14 13 15 13 3 0 -8 -5
-20 -12 -27 -16 -16 -77 -15 -84 1 -2 7 -6 49 -7 92 -3 86 -27 148 -83 214
-62 75 -168 107 -248 77 -42 -16 -116 -84 -116 -106 0 -41 -192 46 -281 128
-30 27 -59 47 -65 45 -17 -6 -34 52 -34 113 0 41 5 59 25 82 29 34 32 73 9 93
-9 8 -40 14 -68 14 -67 1 -134 35 -192 97 -55 59 -85 123 -91 197 -5 61 14
137 35 135 6 -1 37 -2 67 -2 l55 -2 0 -43 c0 -48 21 -84 56 -97 70 -27 149 75
96 123 -22 20 -33 22 -26 4 2 -7 -2 -21 -10 -32 -12 -16 -16 -17 -30 -6 -28
24 -19 60 25 99 23 20 47 49 55 64 31 59 9 164 -45 212 -11 10 -32 38 -46 62
-54 91 -169 124 -251 71 -60 -38 -80 -41 -105 -16 -21 21 -21 23 -4 36 11 7
27 11 37 7 24 -7 23 11 -2 36 -39 39 -120 12 -134 -45 -13 -51 50 -115 113
-115 21 0 21 -1 4 -32 -11 -21 -17 -56 -18 -97 l0 -63 -57 4 c-114 8 -276 115
-323 214 -29 61 -32 145 -6 194 26 50 26 72 3 93 -20 18 -57 23 -67 8 -6 -11
-47 -1 -92 22 -45 24 -137 111 -172 164 -36 55 -38 63 -11 63 27 0 25 15 -6
55 -24 32 -54 110 -54 142 0 9 14 13 46 13 25 0 61 7 80 16 51 24 103 87 110
133 6 37 8 39 32 30 33 -13 86 5 112 38 41 52 15 142 -46 157 -33 9 -64 -12
-40 -26 21 -12 20 -47 0 -55 -11 -4 -32 12 -69 53 -70 79 -142 118 -215 119
-69 0 -115 -27 -167 -97 -33 -46 -38 -60 -41 -119 l-4 -67 -67 15 c-36 9 -88
24 -116 34 -60 23 -65 23 -65 5 0 -25 -16 -26 -74 -6 -145 50 -258 192 -210
265 15 23 15 27 0 50 -19 30 -60 33 -88 8 -43 -39 -227 24 -321 110 -44 40
-46 45 -50 108 l-4 66 34 17 c18 9 36 16 38 16 3 0 5 -18 5 -39 0 -64 70 -131
138 -131 15 0 33 5 40 12 26 26 6 98 -27 98 -32 0 -34 -29 -3 -41 26 -10 26
-11 8 -25 -24 -17 -54 -10 -78 18 -24 28 -23 54 7 103 49 85 49 214 0 285 -27
39 -90 80 -123 80 -11 0 -26 7 -33 17 -23 26 -74 43 -136 43 -46 0 -69 -6
-108 -29 -63 -36 -88 -64 -123 -132 -32 -63 -62 -79 -108 -58 -17 8 -30 24
-32 37 -4 24 7 29 25 11 6 -6 16 -8 22 -5 16 11 13 43 -5 50 -19 7 -73 -19
-81 -40 -10 -26 15 -62 56 -84 50 -25 96 -26 143 -1 l36 20 7 -37 c3 -20 18
-54 31 -75 25 -38 25 -39 7 -59 -29 -32 -147 -22 -235 19 -69 33 -231 132
-236 145 -10 24 -38 39 -66 36 -25 -2 -34 3 -48 25 -22 33 -66 37 -93 7 -59
-65 -322 22 -457 151 l-61 57 36 32 37 32 34 -21 c47 -29 79 -26 121 10 55 48
45 109 -17 109 -21 0 -29 -6 -34 -25 -7 -27 12 -59 28 -49 5 4 8 17 5 30 -2
13 -1 24 4 24 14 0 21 -21 15 -46 -8 -32 -39 -31 -65 2 -18 22 -21 41 -21 112
0 83 -1 85 -34 117 -41 38 -115 61 -241 71 -200 18 -257 -8 -276 -126 -5 -34
-16 -75 -24 -91 -27 -51 -85 -46 -85 7 0 18 5 24 23 23 12 0 16 -3 10 -6 -18
-7 -16 -43 2 -43 25 0 36 34 19 58 -19 27 -45 28 -68 3 -25 -28 -13 -73 31
-111 29 -26 40 -30 67 -25 17 4 42 14 55 22 13 8 26 11 30 6 4 -4 19 -25 34
-45 l27 -37 -82 -26 c-111 -36 -257 -44 -348 -21 -76 20 -160 70 -160 96 0 20
-35 50 -58 50 -8 0 -26 -13 -41 -29 -35 -37 -76 -57 -134 -66 -42 -6 -47 -5
-47 11 0 17 -7 19 -54 16 -63 -4 -152 18 -213 54 l-42 24 19 33 c31 53 36 116
12 170 l-20 45 29 12 c16 7 43 31 59 53 45 61 38 112 -20 142 -37 19 -65 19
-84 -1z m585 -604 c125 -90 339 -110 534 -49 33 10 63 19 67 19 10 0 -48 -145
-93 -231 -22 -42 -55 -95 -74 -117 -37 -43 -124 -92 -162 -92 -21 0 -22 -2
-12 -21 9 -18 17 -21 50 -16 26 3 42 1 47 -7 12 -22 49 -36 92 -36 41 0 42 -1
36 -27 -10 -42 -79 -103 -116 -103 -55 0 -126 52 -114 84 5 12 -87 106 -103
106 -4 0 -21 -16 -36 -35 -23 -28 -27 -42 -22 -65 6 -29 5 -30 -23 -24 -26 5
-32 1 -60 -42 -41 -62 -41 -80 3 -94 88 -29 125 -9 125 66 0 38 2 42 22 36 21
-5 21 -6 2 -13 -16 -6 -16 -8 -2 -8 10 -1 15 -7 13 -13 -6 -16 73 -76 123 -94
54 -19 91 -17 148 10 61 28 118 92 139 157 16 46 19 49 51 49 38 0 89 22 97
42 4 9 12 6 26 -11 43 -48 20 -238 -41 -353 -17 -32 -37 -57 -44 -56 -16 4
-94 -88 -94 -110 0 -8 15 -28 32 -42 26 -22 36 -25 50 -17 23 15 32 4 19 -22
-10 -17 -5 -26 31 -61 24 -22 49 -39 58 -38 8 2 23 28 34 61 26 81 14 107 -49
107 -25 0 -45 5 -45 10 0 6 8 10 18 11 14 0 14 2 -3 9 -18 8 -18 9 5 9 51 2
129 173 150 329 6 46 8 97 5 113 -5 23 -1 33 22 53 26 23 29 23 57 9 38 -20
115 -12 133 13 8 11 23 18 36 16 27 -3 53 22 62 61 8 30 7 31 -30 17 -35 -13
-85 8 -118 51 -30 40 -112 207 -105 215 3 2 37 -15 76 -39 40 -24 109 -57 154
-72 70 -24 99 -28 185 -27 56 0 111 3 122 7 15 4 21 2 21 -9 0 -22 29 -46 56
-46 14 0 69 -30 127 -68 131 -88 158 -103 235 -122 l64 -16 -189 -180 c-156
-149 -214 -200 -272 -241 -3 -2 6 -15 20 -29 19 -20 31 -25 57 -22 27 3 32 1
28 -11 -13 -43 -80 -197 -86 -201 -4 -3 -7 -17 -6 -32 1 -34 -15 -31 -34 7
-24 48 -58 45 -108 -9 -23 -25 -42 -50 -42 -55 0 -13 21 -28 69 -47 44 -17 45
-17 59 4 20 30 32 28 32 -6 0 -25 6 -31 41 -42 38 -13 42 -12 55 5 18 24 36
88 39 137 3 40 58 168 74 168 5 0 16 3 25 6 11 4 16 0 16 -12 0 -41 60 -70 87
-43 7 7 12 3 17 -15 8 -33 50 -45 86 -24 25 14 28 13 58 -13 18 -16 43 -29 56
-29 13 0 36 -14 56 -36 42 -47 102 -74 167 -74 39 0 54 -4 62 -17 9 -17 10
-17 16 -1 4 10 11 16 15 13 5 -3 14 3 20 12 9 15 10 13 5 -12 -18 -85 -18 -92
6 -109 15 -10 44 -16 76 -16 l53 0 -1 33 c0 17 -6 50 -13 72 -9 30 -17 40 -33
40 -29 0 -36 10 -18 25 8 7 15 21 15 32 0 28 -27 88 -40 88 -7 0 -44 -14 -82
-31 -65 -28 -75 -30 -110 -20 -27 9 -38 17 -38 31 0 21 15 27 25 10 3 -5 22
-10 41 -10 36 0 74 28 74 55 0 13 4 14 21 5 41 -23 119 20 119 64 0 19 -5 21
-49 18 -68 -5 -108 17 -117 64 -6 34 3 265 11 273 2 2 30 -14 62 -35 82 -54
167 -87 247 -93 l69 -6 13 -52 c31 -121 137 -220 282 -264 28 -8 41 -17 38
-26 -7 -18 26 -33 76 -33 l43 0 -52 -35 c-52 -35 -98 -86 -98 -108 0 -17 -91
-83 -162 -119 -35 -17 -63 -33 -63 -35 0 -3 9 -18 21 -34 20 -29 20 -31 4 -49
-43 -48 -169 -65 -297 -41 -91 17 -108 7 -108 -59 0 -40 4 -50 20 -55 27 -9
25 -19 -5 -33 -25 -11 -26 -16 -23 -79 2 -36 8 -68 13 -70 6 -2 35 12 65 29
63 38 73 65 41 109 -12 15 -21 34 -20 41 0 10 2 10 6 1 8 -20 23 -15 16 5 -6
15 -5 15 9 2 12 -13 32 -14 105 -9 101 7 174 28 223 64 19 14 41 25 50 25 22
0 87 45 146 102 l52 50 41 -27 c22 -15 41 -32 41 -36 0 -5 -16 -30 -36 -56
-42 -55 -83 -133 -81 -154 3 -24 -153 -290 -210 -357 -29 -35 -53 -69 -53 -77
0 -16 52 -55 73 -55 9 0 19 5 22 10 10 16 28 12 21 -5 -3 -8 -9 -21 -12 -29
-7 -17 69 -76 97 -76 12 0 22 15 33 47 29 86 16 117 -48 112 -19 -2 -38 0 -42
4 -4 4 0 7 9 7 9 0 17 7 17 16 0 8 5 12 11 8 7 -4 9 0 5 13 -6 18 56 136 147
281 30 47 35 49 79 26 36 -19 41 -14 56 54 14 63 76 202 91 202 5 0 17 24 25
53 9 30 24 61 35 71 19 17 20 17 31 -24 7 -25 18 -44 28 -47 10 -2 27 -22 40
-44 45 -78 149 -177 226 -213 39 -19 79 -37 89 -40 14 -4 16 -11 10 -33 -5
-16 -8 -55 -8 -89 1 -108 72 -218 191 -296 l65 -43 -53 -8 c-75 -12 -286 -55
-330 -67 -23 -7 -38 -17 -38 -26 0 -25 58 -73 96 -80 25 -4 34 -11 34 -26 0
-10 7 -32 15 -49 l16 -29 -62 -40 c-99 -64 -163 -52 -157 27 4 60 -3 102 -20
123 -19 23 -19 23 -65 5 -38 -14 -47 -22 -47 -41 0 -29 -15 -31 -30 -4 -9 17
-13 18 -48 6 -106 -38 -113 -52 -53 -110 46 -45 76 -45 106 0 11 18 28 37 39
44 14 9 16 9 11 0 -4 -7 -1 -17 6 -22 11 -8 10 -9 -3 -5 -12 4 -16 0 -15 -16
0 -12 4 -24 7 -27 3 -3 14 -23 25 -45 27 -53 93 -89 150 -80 48 7 137 47 182
81 27 20 37 23 53 14 12 -7 20 -21 20 -37 0 -15 7 -34 15 -43 13 -15 9 -20
-47 -60 -115 -81 -190 -165 -213 -240 -4 -14 -11 -27 -14 -30 -4 -3 -19 -27
-35 -53 -37 -64 -32 -88 19 -103 36 -10 42 -9 63 9 l22 20 0 -26 c0 -32 23
-46 90 -54 l50 -6 0 60 c0 34 -6 67 -14 78 -12 17 -17 18 -52 6 -22 -7 -45
-15 -51 -17 -8 -4 -13 2 -13 14 0 12 9 23 21 27 15 5 18 10 11 17 -8 8 -5 23
9 49 29 58 71 101 154 159 71 48 78 51 105 40 17 -7 30 -21 32 -33 2 -16 11
-23 34 -25 27 -3 30 -6 26 -27 -7 -41 69 -98 111 -82 9 3 16 29 20 66 10 91
107 382 107 320 0 -31 52 -121 97 -170 53 -56 112 -95 176 -114 36 -11 42 -16
39 -36 -9 -72 -3 -168 12 -208 12 -34 13 -46 4 -52 -15 -9 56 -106 105 -143
38 -29 107 -56 146 -56 l26 -1 -30 -17 c-26 -15 -57 -17 -235 -14 -113 1 -239
-2 -280 -8 -89 -13 -160 -37 -160 -54 0 -7 -19 -22 -42 -32 -23 -10 -57 -29
-75 -41 -19 -13 -35 -18 -38 -12 -4 5 -11 7 -16 3 -5 -3 -7 -10 -4 -15 4 -5
-1 -9 -9 -9 -8 0 -17 -8 -19 -17 -3 -12 -5 -8 -6 9 -2 53 -18 78 -50 78 -33 0
-115 -32 -126 -50 -4 -6 13 -31 39 -57 36 -35 49 -44 58 -35 22 22 38 14 32
-17 -5 -22 -1 -32 21 -50 15 -11 35 -21 44 -21 9 0 41 25 71 56 52 52 97 83
146 98 17 5 24 -1 39 -34 l18 -39 28 20 c65 46 161 82 218 82 52 0 164 -32
184 -52 5 -5 -33 -43 -91 -90 -143 -117 -182 -180 -182 -296 l0 -65 34 0 c30
0 37 -6 59 -43 14 -24 42 -52 61 -62 20 -11 36 -23 36 -27 0 -4 7 -5 15 -2 8
4 15 1 15 -5 0 -6 4 -11 10 -11 5 0 7 8 4 18 -5 14 -4 15 5 2 16 -22 14 -26
-18 -40 -16 -6 -37 -20 -47 -31 -22 -24 -7 -62 41 -109 41 -39 53 -34 91 43
23 45 24 50 10 66 -22 24 -20 31 9 31 19 0 29 10 45 40 14 28 18 46 12 57 -11
19 -130 64 -138 52 -6 -10 -54 10 -54 23 0 4 14 8 30 8 35 0 34 -2 15 43 -8
20 -15 55 -15 78 0 60 49 105 155 142 44 15 87 27 96 27 9 0 41 12 71 28 l55
27 -8 -35 c-21 -89 7 -222 48 -228 13 -2 28 -20 44 -55 13 -28 43 -73 67 -100
30 -34 41 -54 37 -66 -68 -164 -30 -372 104 -570 24 -35 36 -61 29 -61 -7 0
-64 5 -127 10 -225 20 -317 62 -388 176 -10 16 -13 17 -22 4 -15 -21 -13 -46
4 -63 13 -13 13 -19 -2 -47 -14 -30 -15 -37 0 -81 l15 -49 -34 0 c-70 0 -134
56 -134 117 0 43 25 93 48 93 20 1 78 110 69 132 -3 8 -26 21 -52 28 -43 12
-49 12 -60 -3 -17 -24 -23 -21 -27 11 -3 23 -11 30 -59 46 -73 26 -89 19 -89
-38 0 -25 5 -57 12 -72 11 -23 16 -26 53 -21 22 3 47 8 56 11 11 5 18 1 22
-13 6 -23 -8 -29 -16 -8 -4 7 -6 6 -6 -5 -1 -9 -4 -18 -8 -20 -14 -6 -44 -80
-50 -123 -16 -119 92 -227 238 -239 49 -4 55 -7 66 -34 7 -16 28 -43 46 -58
48 -40 37 -65 -40 -94 -102 -40 -359 -38 -350 1 3 14 -111 61 -132 54 -10 -3
-25 -23 -34 -45 -15 -38 -14 -41 4 -53 22 -16 15 -27 -17 -27 -25 0 -47 -26
-65 -79 -16 -44 -1 -53 76 -45 80 8 93 21 78 76 -6 24 -9 45 -6 48 3 3 8 -1
10 -7 3 -7 11 -13 19 -13 8 0 14 -5 14 -11 0 -5 4 -8 8 -5 5 3 32 -2 61 -11
77 -22 275 -14 358 15 59 21 63 21 92 5 25 -15 29 -22 24 -45 -3 -16 2 -48 12
-74 13 -35 23 -46 45 -50 20 -5 26 -11 23 -24 -6 -24 33 -50 75 -50 l33 0 -20
26 c-47 59 -14 133 106 243 42 38 79 69 80 67 2 -1 -6 -38 -17 -81 -28 -108
-27 -269 1 -345 11 -30 24 -71 29 -90 5 -19 16 -40 25 -46 15 -11 14 -13 -4
-19 -24 -7 -35 -36 -26 -73 3 -17 -6 -64 -25 -127 -42 -138 -55 -222 -43 -285
6 -27 9 -50 7 -50 -12 0 -468 249 -506 276 l-48 34 -16 -31 c-17 -33 -12 -79
9 -79 9 0 9 -2 -1 -8 -7 -5 -43 -5 -80 -1 -144 16 -203 17 -198 3 3 -8 0 -11
-10 -7 -19 7 -19 7 17 47 17 20 29 43 27 53 -4 21 -111 78 -131 70 -19 -7 -32
-104 -16 -123 6 -8 18 -14 25 -14 21 0 17 -18 -5 -25 -29 -9 -43 -86 -19 -101
17 -11 148 -11 148 0 0 5 38 6 85 4 69 -4 90 -8 106 -25 l21 -20 -26 -26 c-29
-29 -33 -58 -11 -77 14 -12 13 -15 -5 -35 -26 -27 -25 -35 4 -78 24 -34 24
-38 9 -67 -9 -20 -13 -43 -9 -62 4 -22 0 -38 -16 -61 -29 -40 -36 -135 -15
-195 8 -23 11 -45 6 -48 -11 -6 -12 -24 -1 -23 4 1 16 1 27 -1 l20 -1 -20 -9
c-18 -8 -18 -9 -2 -9 10 -1 16 -5 13 -10 -3 -5 -24 -7 -46 -4 -60 8 -74 -8
-67 -80 7 -82 18 -92 70 -66 65 33 79 48 72 81 -7 31 0 35 24 14 15 -13 21
-12 59 12 23 15 42 35 42 44 0 10 -22 42 -49 72 -63 70 -82 146 -35 146 9 0
14 -11 14 -34 0 -43 28 -79 63 -78 24 0 27 -4 27 -33 0 -25 8 -40 31 -59 31
-26 46 -30 72 -20 12 4 11 11 -4 42 -36 69 -22 117 38 143 46 20 243 72 249
67 1 -2 -6 -37 -17 -78 -22 -87 -25 -207 -5 -273 l14 -46 -43 -25 c-95 -56
-155 -169 -163 -307 -4 -70 -8 -89 -20 -89 -12 0 -14 -11 -9 -60 l5 -60 -30
25 c-40 34 -101 65 -137 69 -36 4 -102 50 -166 115 -27 28 -52 51 -55 51 -3 0
-14 -14 -23 -30 -10 -17 -24 -30 -32 -30 -27 0 -101 97 -123 162 -11 35 -17
67 -13 71 5 5 -1 36 -13 70 -23 69 -39 78 -101 57 -26 -8 -35 -17 -37 -38 l-3
-27 -21 23 c-20 22 -21 22 -75 6 -85 -25 -88 -33 -30 -87 28 -26 59 -47 70
-47 11 0 33 17 50 37 29 35 32 36 48 20 10 -9 12 -17 6 -17 -6 0 -14 6 -17 13
-2 6 -4 1 -3 -13 1 -14 6 -28 10 -31 5 -3 19 -36 32 -72 12 -36 33 -80 45 -99
40 -58 206 -212 256 -237 76 -38 74 -35 56 -92 -12 -38 -20 -48 -32 -43 -36
16 -174 54 -196 54 -12 0 -25 -4 -29 -10 -3 -6 -15 -6 -30 0 -13 5 -86 21
-162 36 -80 15 -165 39 -202 55 -90 41 -107 39 -123 -12 -11 -37 -10 -43 6
-55 22 -16 13 -34 -13 -27 -23 6 -36 -15 -50 -76 -9 -40 -8 -43 17 -52 15 -6
48 -7 74 -4 61 9 75 30 53 81 -8 21 -12 40 -9 43 4 3 9 0 11 -6 3 -7 11 -13
19 -13 8 0 14 -5 14 -11 0 -8 4 -8 14 1 12 9 41 6 138 -15 68 -14 147 -33 175
-41 l53 -14 -7 -47 -6 -46 59 6 c70 6 228 -10 232 -23 2 -6 30 -10 62 -10 33
0 71 -5 85 -12 l25 -11 -37 -21 c-21 -12 -39 -30 -41 -41 -2 -10 -25 -46 -51
-79 -72 -95 -113 -193 -120 -290 l-6 -81 -51 -6 c-147 -18 -256 -140 -299
-333 -6 -27 -11 -20 -77 100 -78 144 -139 239 -152 239 -22 0 -50 -56 -50
-105 -1 -34 -5 -50 -14 -50 -7 0 -24 -11 -38 -25 l-26 -26 -33 21 c-46 28
-105 96 -105 120 0 24 37 63 53 57 16 -6 107 43 121 65 16 26 -42 94 -78 90
-30 -4 -33 4 -11 28 14 16 11 22 -31 69 -25 28 -52 51 -59 51 -8 0 -25 -24
-40 -54 -32 -66 -24 -90 35 -106 45 -12 52 -20 39 -40 -7 -12 -9 -11 -9 5 -1
19 -1 19 -11 1 -9 -15 -13 -16 -20 -5 -7 12 -9 12 -9 0 0 -7 -11 -22 -25 -33
-56 -44 -71 -127 -35 -198 11 -21 50 -66 88 -100 56 -51 68 -67 64 -86 -3 -17
-11 -24 -27 -24 -12 0 -29 -10 -37 -22 l-15 -22 -60 46 c-76 59 -166 105 -229
117 -27 6 -86 18 -132 26 -45 9 -89 14 -97 11 -10 -4 -15 -21 -15 -55 0 -40 3
-50 20 -54 26 -7 26 -27 0 -27 -19 0 -21 -5 -18 -73 l3 -72 33 3 c42 3 88 26
101 51 8 15 4 27 -19 60 -27 36 -41 65 -24 48 4 -3 16 -2 27 4 10 6 17 7 14 2
-3 -5 -1 -15 4 -23 8 -13 10 -13 18 -1 22 35 150 -15 257 -100 54 -43 63 -54
61 -79 -1 -17 -5 -30 -9 -30 -18 0 -38 -33 -32 -56 4 -15 2 -24 -5 -24 -27 0
-61 -49 -61 -88 0 -51 18 -67 56 -51 17 7 103 14 199 17 l170 4 -61 -58 c-84
-81 -125 -166 -133 -276 l-6 -83 -57 -7 c-62 -8 -118 -32 -165 -72 -19 -16
-33 -22 -40 -15 -6 6 -21 -6 -42 -36 -54 -75 -74 -131 -73 -207 0 -58 -2 -67
-14 -57 -26 21 -73 133 -89 213 -37 180 -143 406 -191 406 -19 0 -136 118
-129 130 4 6 1 10 -6 9 -8 -1 -25 3 -39 8 -25 11 -25 11 18 28 35 14 42 22 42
45 0 28 -52 103 -80 115 -17 7 -45 -26 -61 -73 -9 -27 -8 -36 5 -51 23 -25 20
-34 -9 -27 -21 5 -27 1 -44 -32 -26 -51 -16 -65 76 -109 47 -23 87 -51 109
-77 l34 -40 -32 -33 -31 -32 29 -23 c52 -39 109 -103 129 -143 14 -29 21 -67
23 -137 2 -54 1 -98 -3 -98 -4 0 -48 27 -99 60 -134 87 -178 104 -261 105 -48
0 -84 -6 -112 -19 -39 -17 -41 -20 -31 -47 9 -26 6 -33 -21 -64 -16 -19 -35
-54 -42 -77 -6 -24 -16 -46 -23 -50 -7 -5 -7 -8 0 -8 6 0 11 -13 11 -30 l0
-29 -39 34 c-21 19 -44 35 -52 35 -16 0 -60 -48 -81 -91 -14 -27 -14 -29 7
-43 13 -8 46 -18 73 -21 49 -7 51 -6 64 21 l14 29 12 -30 c11 -25 20 -31 56
-36 24 -4 49 -2 56 3 13 10 23 148 11 148 -12 0 -10 48 2 55 6 3 10 0 10 -7 1
-37 17 -40 59 -10 52 38 91 47 136 32 38 -12 100 -78 143 -149 15 -25 48 -66
73 -92 l46 -46 -52 -6 c-87 -9 -206 -83 -192 -120 3 -8 -16 -34 -44 -61 -27
-26 -59 -67 -71 -89 -11 -23 -22 -44 -23 -45 -2 -2 -35 -5 -75 -7 -135 -7
-241 -57 -361 -172 -42 -40 -89 -91 -104 -113 -15 -22 -31 -40 -35 -40 -12 0
-62 220 -67 300 -7 93 14 175 57 224 17 18 30 36 30 40 0 16 -61 4 -72 -13 -9
-14 -19 -18 -39 -14 -26 5 -78 -15 -111 -44 -15 -13 -17 -11 -27 22 -14 51 -3
101 29 135 23 25 36 30 73 30 54 0 77 -8 77 -25 0 -14 121 -31 140 -20 5 3 10
28 10 54 0 39 -4 52 -22 64 l-23 15 28 11 c25 10 27 14 27 68 0 81 -8 90 -62
74 -44 -13 -88 -46 -88 -65 0 -6 11 -28 25 -48 29 -43 29 -44 11 -51 -10 -4
-13 -1 -9 9 4 10 0 12 -11 8 -9 -3 -16 -2 -16 4 0 6 -33 9 -79 8 -71 -1 -84
-4 -123 -31 -82 -58 -117 -173 -85 -278 15 -45 14 -48 -7 -65 -32 -25 -56 -63
-56 -88 0 -17 -5 -20 -25 -16 -53 10 -139 141 -170 259 -17 66 -19 120 -5 125
5 2 13 31 16 65 8 77 -2 93 -61 93 -35 0 -44 -4 -48 -21 -7 -25 -27 -16 -27
11 0 10 -8 21 -18 24 -27 9 -110 11 -118 4 -3 -4 1 -29 10 -55 31 -93 59 -112
109 -73 32 26 35 25 35 -5 0 -14 -4 -25 -7 -25 -9 0 6 -130 20 -185 17 -63 72
-176 112 -227 30 -39 35 -52 30 -81 -5 -31 -9 -35 -43 -41 -47 -7 -102 -59
-98 -90 2 -13 -5 -25 -17 -31 -22 -11 -32 -70 -17 -93 7 -10 16 -6 40 17 51
52 123 39 272 -50 l75 -44 -88 -7 c-92 -7 -203 -36 -272 -70 -22 -11 -72 -47
-112 -79 -40 -33 -74 -55 -78 -49 -9 15 -57 12 -79 -5 -15 -11 -49 -15 -131
-15 -132 0 -213 -13 -277 -45 -27 -13 -48 -21 -48 -17 0 26 92 516 104 556 8
27 13 53 10 58 -11 17 -73 8 -93 -13 l-20 -22 -6 29 c-3 16 -15 66 -25 112
-11 46 -18 87 -15 92 3 4 -2 11 -11 14 -9 4 -14 9 -11 13 4 3 2 12 -4 20 -15
18 1 17 37 -2 16 -8 35 -15 41 -15 22 0 42 44 45 100 l3 55 -31 3 c-18 2 -48
-4 -68 -12 -29 -12 -36 -20 -36 -43 l-1 -28 -19 23 c-17 21 -23 22 -60 12 -35
-9 -40 -15 -40 -39 0 -36 30 -124 45 -133 7 -4 21 -39 30 -78 14 -58 15 -76 5
-100 -14 -34 -22 -37 -40 -15 -19 23 -56 18 -78 -10 -17 -21 -21 -23 -32 -10
-19 23 -46 18 -74 -16 -14 -17 -26 -34 -26 -37 0 -4 -20 -6 -46 -4 -31 3 -50
-1 -63 -12 -10 -9 -20 -13 -24 -10 -3 3 -23 10 -44 14 -51 12 -115 -4 -168
-40 -25 -17 -50 -27 -59 -24 -11 4 -16 1 -16 -10 0 -9 -5 -16 -11 -16 -6 0 -8
-9 -3 -22 13 -44 -10 -7 -25 40 -14 41 -20 47 -46 50 -20 2 -46 -7 -78 -28
-47 -29 -47 -30 -32 -54 9 -14 33 -37 52 -52 29 -22 39 -25 54 -16 30 19 41
14 35 -15 -5 -24 0 -32 35 -57 38 -27 41 -27 59 -11 11 10 33 42 50 72 35 61
89 95 116 72 21 -17 17 -29 -9 -29 -47 0 -95 -66 -68 -93 18 -18 13 -27 -13
-27 -32 0 -66 -44 -66 -86 0 -44 16 -51 48 -21 15 13 43 30 62 36 30 10 38 9
60 -7 31 -24 87 -96 134 -176 l36 -61 -82 -7 c-107 -10 -203 -39 -257 -78
l-42 -31 -37 32 c-67 59 -114 74 -232 73 -73 0 -119 -6 -150 -18 -39 -14 -46
-15 -55 -2 -9 12 -15 12 -45 0 -19 -8 -42 -22 -52 -31 -22 -20 -22 -19 2 45
14 36 20 74 19 120 -2 72 19 147 65 229 24 43 26 63 6 63 -5 0 -20 4 -34 9
-23 9 -24 12 -13 47 19 61 148 187 175 170 12 -7 106 67 110 86 2 9 -7 33 -20
52 -20 31 -27 35 -50 30 -31 -6 -35 2 -13 26 14 15 12 22 -22 73 -21 32 -43
57 -50 57 -16 0 -63 -92 -63 -123 0 -29 12 -40 65 -58 33 -11 36 -14 18 -17
-13 -2 -23 -8 -23 -14 0 -6 -3 -9 -6 -6 -3 3 -16 -4 -28 -16 -13 -11 -48 -42
-79 -68 -39 -34 -67 -70 -96 -125 -71 -135 -83 -164 -99 -244 l-15 -79 -52 0
-53 0 -4 113 c-2 79 -8 119 -19 137 -18 29 -49 321 -46 435 l2 70 -47 3 c-43
3 -48 1 -54 -22 -7 -29 -24 -25 -24 4 0 13 -9 22 -26 26 -26 7 -101 0 -111
-10 -9 -9 18 -95 39 -121 24 -31 31 -31 71 -1 18 12 39 27 47 31 13 8 13 7 1
-9 -18 -22 -22 -59 -8 -68 11 -7 35 -212 36 -310 1 -54 -1 -58 -21 -58 -13 0
-32 -3 -44 -6 l-21 -6 24 -59 c29 -71 56 -195 49 -222 -2 -10 2 -37 10 -59 8
-22 14 -56 14 -76 l0 -35 -22 20 c-34 30 -66 45 -73 33 -4 -6 -17 -4 -36 6
-95 49 -279 68 -378 38 -29 -8 -54 -14 -56 -12 -1 2 -12 22 -24 45 -61 121
-215 194 -379 179 l-64 -5 100 104 c113 116 182 200 182 220 0 26 -71 34 -127
14 -27 -9 -34 -7 -56 15 -15 14 -33 26 -41 26 -13 0 -12 11 8 66 31 83 60 116
101 112 21 -2 34 -11 42 -29 16 -32 88 -99 107 -99 21 0 70 80 57 93 -22 22
-13 39 17 33 25 -6 30 -2 60 47 17 29 32 58 32 65 0 18 -44 32 -96 32 -39 0
-46 -3 -55 -27 -6 -16 -8 -40 -5 -55 3 -15 1 -30 -4 -33 -6 -3 -10 2 -11 12 0
16 -1 16 -9 -2 -7 -17 -9 -17 -9 -2 -1 9 -1 20 0 23 0 10 -101 54 -126 54 -85
0 -148 -67 -209 -223 -18 -44 -55 -52 -71 -14 -6 12 -21 23 -33 25 -17 3 -22
8 -18 20 63 191 70 251 47 422 -16 126 -25 138 -79 122 -33 -10 -41 -18 -46
-45 l-7 -32 -18 24 c-17 22 -20 23 -57 11 -51 -16 -84 -37 -84 -53 0 -22 70
-97 90 -97 10 0 34 19 53 41 28 34 35 38 40 25 4 -9 3 -15 -2 -12 -5 3 -8 -6
-8 -19 0 -14 5 -25 13 -25 17 0 28 -77 19 -137 -4 -26 -20 -84 -37 -129 -24
-69 -33 -83 -55 -89 -14 -3 -31 -1 -36 4 -14 14 -64 14 -72 2 -3 -5 -16 1 -30
15 -26 26 -57 30 -100 14 -38 -14 -39 -32 -6 -86 28 -45 89 -213 106 -292 l7
-33 -37 25 c-96 66 -253 89 -355 52 -25 -9 -48 -16 -51 -16 -3 0 -15 22 -27
48 -23 51 -78 112 -124 140 -16 9 -27 23 -25 30 3 22 -97 53 -173 54 -46 1
-80 -5 -113 -20 -26 -12 -47 -16 -47 -11 0 19 115 126 160 149 66 33 125 75
216 151 87 74 136 134 132 165 -3 26 64 163 80 164 14 0 15 6 3 29 -6 10 -6
23 -1 32 8 11 15 7 38 -20 38 -46 69 -38 111 27 38 59 38 70 5 82 -45 18 -102
12 -114 -10 -13 -23 -30 -18 -30 9 0 14 -10 20 -42 24 -23 3 -46 4 -50 1 -11
-7 -27 -72 -29 -119 -1 -22 -13 -60 -25 -85 -39 -76 -36 -74 -81 -51 l-40 20
-27 -69 c-31 -77 -91 -152 -145 -180 -20 -10 -63 -25 -94 -33 -47 -12 -57 -13
-57 -2 0 8 13 69 30 137 17 67 30 139 30 158 0 59 -27 133 -66 178 l-36 42
-24 -19 c-25 -19 -25 -19 -71 1 -31 14 -58 19 -84 15 -22 -3 -42 -1 -45 5 -3
5 -12 1 -19 -9 -7 -10 -11 -21 -9 -25 3 -5 0 -8 -6 -8 -7 0 -10 7 -6 15 3 8 1
15 -3 15 -5 0 -12 -6 -14 -12 -4 -9 -6 -8 -6 3 -1 8 6 24 14 35 8 10 15 31 15
46 0 36 -32 57 -99 65 l-51 6 1 -49 c2 -76 11 -99 42 -102 32 -4 35 -17 6 -33
-18 -9 -20 -17 -15 -52 11 -65 26 -75 85 -54 27 9 56 17 65 17 9 0 16 7 16 15
0 10 10 15 33 14 32 0 32 0 9 -16 -30 -21 -28 -28 14 -54 45 -28 74 -74 74
-119 0 -43 -39 -113 -115 -206 -30 -38 -58 -81 -62 -96 -8 -38 -16 -35 -37 12
-24 55 -62 98 -115 132 -33 20 -48 25 -57 17 -10 -8 -30 -2 -76 20 -35 17 -83
35 -107 39 -24 4 -47 14 -52 22 -4 8 -22 46 -39 84 -38 87 -86 145 -164 204
-65 48 -200 115 -254 127 -17 4 -32 10 -32 14 0 12 143 99 234 142 111 52 191
61 260 30 58 -25 56 -25 56 -4 0 23 -29 53 -52 53 -13 0 -18 8 -18 31 0 30
-32 70 -75 95 -17 9 -16 12 17 32 39 24 102 29 141 11 44 -20 75 -106 48 -135
-12 -12 4 -124 21 -139 10 -10 23 -10 61 1 40 12 47 19 47 39 0 30 15 32 30 4
9 -16 17 -19 38 -14 44 11 112 43 112 53 0 6 -19 31 -43 58 -37 40 -47 46 -70
41 -14 -4 -34 -21 -44 -37 -18 -31 -37 -41 -27 -15 4 8 2 15 -4 15 -6 0 -13
-6 -15 -12 -4 -8 -6 -9 -6 -2 -1 6 5 17 13 23 12 10 11 20 -4 71 -31 104 -85
153 -183 166 -54 8 -139 -15 -186 -50 l-34 -26 -32 20 c-18 11 -50 20 -73 20
-32 0 -42 4 -47 20 -9 29 35 101 107 171 66 65 179 128 200 112 8 -6 22 -7 33
-2 11 4 32 8 46 8 15 1 37 9 50 19 20 17 22 23 13 63 -8 38 -13 44 -32 41 -28
-4 -28 12 -1 32 19 13 21 21 15 57 -8 51 -22 79 -40 79 -23 0 -106 -80 -106
-103 0 -13 14 -34 32 -49 25 -20 30 -30 22 -38 -8 -8 -18 -9 -31 -2 -14 8 -38
1 -108 -33 -101 -49 -204 -135 -256 -216 -23 -35 -39 -49 -55 -49 -12 0 -29
-3 -38 -6 -11 -4 -16 -1 -16 11 0 9 -16 33 -35 52 -30 30 -40 34 -77 32 -26
-2 -43 1 -46 9 -5 17 -53 15 -80 -4 -27 -19 -28 -34 -3 -34 11 0 31 -14 45
-31 22 -26 26 -40 26 -95 0 -59 -24 -206 -37 -228 -3 -5 -16 18 -27 50 -47
129 -151 267 -242 320 -23 14 -48 31 -54 39 -7 8 -24 15 -38 15 -20 0 -23 3
-14 12 19 19 14 50 -13 78 -14 15 -41 71 -61 125 -50 140 -79 198 -125 245
-22 23 -39 43 -37 44 8 6 456 68 533 73 82 6 85 7 85 30 0 35 -18 63 -40 63
-11 0 -20 4 -20 8 0 9 185 122 200 122 5 0 10 7 10 16 0 8 5 12 10 9 6 -3 15
4 20 17 8 18 9 12 7 -32 -2 -48 1 -55 21 -66 19 -9 36 -9 78 1 30 7 58 15 61
18 8 8 -15 62 -39 92 -15 20 -25 23 -51 18 -31 -6 -32 -6 -15 14 24 26 23 33
-10 73 l-29 34 -34 -22 c-19 -12 -46 -30 -60 -39 -14 -9 -30 -26 -35 -37 -5
-11 -37 -38 -71 -58 -48 -29 -69 -36 -92 -32 -27 6 -29 8 -19 30 15 32 -3 71
-35 79 -19 5 -23 11 -19 34 4 32 -26 61 -64 61 -17 0 -23 8 -28 39 -4 25 -15
47 -31 59 -19 15 -25 29 -25 59 0 54 -37 122 -87 158 -23 16 -42 38 -42 49 -1
12 -6 16 -16 13 -8 -4 -17 -2 -20 3 -3 5 -12 7 -20 3 -27 -10 -16 4 25 31 55
36 54 66 -2 117 -24 22 -48 39 -55 39 -13 0 -63 -95 -63 -120 0 -8 10 -22 23
-30 l22 -14 -30 -6 c-24 -4 -33 -13 -47 -52 -17 -48 -17 -48 5 -62 12 -7 40
-17 62 -21 61 -11 102 -31 121 -60 16 -24 16 -27 1 -43 -16 -15 -17 -15 -17 0
0 23 -47 58 -78 58 -14 0 -34 -7 -44 -17 -16 -14 -18 -15 -18 0 0 42 -101 64
-133 29 -16 -17 -15 -19 18 -35 35 -17 75 -69 75 -98 0 -19 -81 -135 -143
-204 l-44 -49 -22 66 c-12 37 -39 93 -60 125 -35 54 -104 126 -130 134 -7 3
-5 21 10 59 42 110 21 243 -58 357 -23 34 -38 65 -33 68 18 11 11 27 -26 61
l-35 34 58 0 c67 0 133 16 133 32 0 11 197 5 253 -8 26 -6 27 -5 27 35 0 32 4
41 18 42 39 2 79 -4 111 -17 43 -18 132 -84 127 -93 -7 -10 87 -81 107 -81 8
0 29 16 46 36 29 36 29 38 13 62 l-17 25 31 -6 c26 -5 36 -1 56 21 37 39 61
80 54 91 -10 16 -114 25 -142 12 -20 -9 -24 -18 -24 -56 0 -25 -4 -45 -10 -45
-5 0 -10 6 -10 13 0 8 -4 7 -10 -3 -9 -13 -10 -13 -11 0 -1 8 -1 18 0 23 0 4
-5 7 -12 7 -6 0 -34 16 -61 35 -27 19 -72 43 -101 54 -101 38 -284 56 -383 38
-42 -7 -43 -6 -56 25 -28 66 -27 68 49 92 92 30 155 63 155 81 0 8 5 15 11 15
5 0 74 29 152 64 78 35 173 71 211 79 91 21 104 33 85 84 -12 29 -21 39 -44
43 -30 6 -30 6 -8 18 14 8 23 22 23 36 0 27 -25 92 -39 100 -13 9 -102 -54
-114 -82 -12 -25 -1 -39 59 -80 18 -12 18 -12 -4 -7 -12 4 -22 2 -22 -4 0 -6
-7 -8 -15 -5 -9 4 -15 0 -15 -8 0 -13 -151 -85 -291 -139 l-46 -18 -18 40
c-10 21 -20 39 -22 39 -2 0 -33 -23 -70 -50 -71 -55 -177 -113 -187 -103 -3 4
-16 -3 -29 -14 -27 -25 -80 -53 -101 -53 -13 0 -13 4 0 36 8 20 12 44 9 53 -4
9 -8 66 -10 126 -3 126 -30 224 -84 297 l-31 42 45 46 c60 61 85 127 85 228 0
77 -15 144 -44 200 -9 17 -16 34 -16 37 0 3 48 -19 108 -49 113 -57 219 -103
264 -117 24 -7 29 -4 34 17 9 34 -2 67 -32 103 -24 29 -24 32 -10 53 9 12 16
33 16 45 0 22 4 23 64 23 74 0 122 -15 136 -41 12 -22 3 -69 -14 -69 -16 -1
-58 -93 -54 -120 2 -18 14 -27 46 -38 38 -13 45 -12 61 2 24 22 31 20 31 -8 0
-28 36 -44 105 -49 l40 -2 -1 53 c-2 64 -25 96 -64 88 -62 -12 -84 -16 -72
-10 6 3 12 12 12 20 0 8 4 14 9 14 5 0 9 10 10 23 0 12 1 44 2 70 5 101 -91
167 -244 167 -64 0 -68 1 -78 27 -8 21 -7 28 6 35 8 5 15 22 15 38 l0 30 89 0
c113 0 180 13 261 51 36 17 66 30 68 30 10 -3 121 61 125 72 3 8 -8 30 -23 49
-23 28 -35 34 -55 31 -29 -6 -32 3 -10 27 14 16 11 22 -32 70 l-47 53 -33 -39
c-19 -21 -36 -49 -40 -61 -7 -31 19 -59 63 -67 36 -7 40 -13 23 -36 -9 -13
-10 -12 -5 3 3 9 1 17 -4 17 -6 0 -10 -5 -10 -11 0 -6 -7 -9 -15 -5 -10 3 -15
-1 -15 -13 0 -35 -90 -64 -217 -69 l-112 -4 -26 28 c-17 19 -22 31 -15 38 17
17 11 44 -11 60 -20 14 -20 16 -5 31 9 9 16 26 16 38 0 26 -35 86 -54 93 -9 3
-41 -21 -83 -63 -77 -77 -261 -209 -249 -177 38 91 32 224 -12 316 -17 35 -39
75 -49 90 l-17 28 41 42 c44 46 76 103 88 156 4 19 13 32 22 32 13 0 15 13 11
88 -5 95 -23 143 -79 206 l-30 35 30 -9 c61 -17 121 -54 193 -117 85 -75 183
-142 277 -190 63 -32 121 -43 121 -24 0 6 13 6 32 1 18 -5 59 -11 91 -15 31
-3 57 -11 57 -16 0 -17 17 -9 29 14 6 12 9 14 7 5 -3 -10 -1 -18 4 -18 6 0 10
5 10 11 0 5 5 7 10 4 6 -4 3 -17 -10 -35 -42 -59 -11 -95 92 -107 l51 -6 -7
52 c-9 71 -15 81 -41 81 -33 0 -39 15 -10 28 15 7 22 17 20 29 -2 10 -6 30 -9
44 -8 38 -27 41 -116 23 -67 -13 -85 -13 -131 -2 -30 8 -53 18 -53 23 1 6 4
24 7 42 6 32 6 32 -41 37 -164 20 -223 48 -289 141 -23 33 -42 65 -43 71 0 7
42 14 119 18 190 11 261 38 326 123 41 54 43 65 11 83 -22 11 -24 17 -19 65 4
37 1 62 -12 88 -9 20 -14 41 -10 46 3 6 -1 11 -10 11 -9 0 -14 4 -10 9 3 5 1
12 -4 15 -5 4 -12 -2 -14 -11 -3 -13 -5 -12 -6 5 -1 23 1 24 48 17 63 -9 81 8
81 75 0 27 -3 55 -6 64 -15 40 -138 -8 -140 -54 -2 -42 -3 -44 -24 -25 -20 18
-22 18 -65 -3 -28 -13 -45 -28 -45 -39 0 -24 69 -123 85 -123 13 0 25 -21 25
-42 0 -6 -11 -3 -25 6 -20 13 -26 14 -29 4 -22 -75 -42 -112 -70 -129 -54 -33
-148 -21 -288 37 -32 13 -71 24 -89 24 l-31 0 50 55 c67 73 102 173 67 192
-12 7 -13 16 -4 48 6 22 9 75 7 118 l-5 79 54 40 c125 95 196 252 210 465 l6
102 40 -31 c88 -70 204 -189 237 -244 31 -52 35 -66 35 -131 0 -77 8 -88 40
-53 11 12 16 29 13 45 -4 19 -1 25 12 25 24 0 59 41 71 84 9 31 13 35 29 26
31 -17 62 -69 67 -113 4 -33 0 -48 -17 -70 -28 -35 -77 -61 -93 -49 -14 11
-115 -34 -130 -59 -8 -12 -3 -26 19 -57 25 -35 33 -40 57 -35 31 6 34 -2 11
-28 -15 -17 -15 -21 4 -51 12 -18 32 -44 46 -57 21 -20 28 -22 41 -11 28 23
56 80 53 106 -3 28 -12 35 -66 56 -31 12 -32 14 -17 33 14 17 16 17 11 3 -3
-10 -1 -18 4 -18 6 0 10 4 10 10 0 5 7 7 15 4 8 -4 15 -1 15 5 0 6 7 11 15 11
29 0 112 92 125 139 22 83 -9 170 -87 241 -30 27 -51 54 -48 60 11 18 7 100
-6 116 -10 12 -8 17 7 29 10 8 26 12 34 10 8 -2 31 -7 50 -10 47 -10 145 -59
196 -98 54 -42 97 -94 89 -107 -7 -11 36 -89 64 -115 19 -16 22 -16 60 6 34
19 40 26 35 46 -6 23 9 32 21 13 12 -19 52 -10 95 21 l42 31 -23 24 c-30 32
-102 66 -123 58 -8 -3 -21 -24 -27 -45 -7 -21 -16 -39 -22 -39 -5 0 -7 7 -3
15 3 8 1 15 -4 15 -6 0 -10 5 -10 10 0 11 -46 66 -95 113 -64 61 -164 119
-262 151 -40 13 -56 25 -68 49 -14 28 -14 32 0 39 38 22 61 128 33 156 -8 8
-8 15 2 27 16 19 -1 57 -37 80 -23 15 -23 15 -23 -18 0 -43 -29 -80 -77 -100
-48 -19 -178 -40 -222 -35 l-33 3 53 43 c68 54 140 139 178 211 31 60 63 158
65 204 1 18 5 26 14 22 20 -8 50 12 67 44 8 16 61 65 118 109 106 82 150 128
184 195 l19 38 112 -229 c62 -126 120 -253 130 -283 11 -32 26 -55 35 -57 24
-5 70 45 64 69 -3 10 -3 19 0 19 5 0 115 -94 157 -135 17 -16 37 -28 45 -27 8
2 10 -1 5 -9 -5 -9 -2 -10 9 -6 9 3 19 2 22 -3 3 -5 -6 -12 -20 -15 -14 -3
-36 -7 -50 -10 -34 -7 -34 -52 1 -111 32 -55 53 -56 94 -3 29 36 31 43 21 66
-14 31 -9 38 18 24 17 -10 24 -6 47 24 14 19 24 41 21 50 -7 18 -106 90 -124
90 -7 0 -40 21 -72 48 -47 38 -60 54 -63 81 -3 25 0 32 9 29 38 -15 91 34 77
71 -4 10 0 13 14 9 29 -7 52 23 52 70 0 38 3 44 31 56 18 8 36 26 42 42 8 19
24 33 54 44 53 21 107 82 125 142 8 28 21 49 33 54 11 4 14 8 6 8 -8 1 -11 7
-7 18 4 9 1 20 -6 25 -10 6 -10 8 1 8 7 0 26 -11 43 -25 37 -31 61 -32 85 -1
23 29 49 104 39 113 -4 4 -37 9 -74 11 -66 4 -68 4 -78 -25 l-11 -28 -11 28
c-11 26 -15 28 -64 25 l-53 -3 0 -90 c0 -93 -17 -145 -49 -145 -24 0 -26 12
-6 38 31 39 21 112 -16 112 -13 0 -12 5 5 26 12 15 21 39 21 54 0 31 -34 80
-56 80 -9 0 -14 -10 -14 -27 0 -36 -33 -90 -64 -104 -19 -9 -39 -7 -94 10 -69
21 -202 76 -202 84 0 2 28 26 61 52 73 57 141 146 163 213 l16 49 54 -5 c108
-9 227 51 315 158 28 35 52 55 65 55 15 0 27 13 41 42 21 45 35 55 35 26 0
-29 48 -124 75 -148 26 -25 62 -129 71 -212 6 -44 10 -53 23 -48 9 4 28 9 43
12 24 5 28 2 38 -38 18 -66 -8 -203 -43 -233 -8 -6 -22 -37 -32 -69 -22 -65
-17 -75 44 -96 28 -9 37 -8 51 4 23 21 30 19 30 -10 0 -19 8 -28 38 -41 20 -8
52 -18 71 -21 l34 -6 -7 59 c-9 77 -29 108 -64 101 -15 -3 -40 -9 -57 -12 -24
-5 -27 -4 -13 5 10 6 15 17 11 27 -4 10 -2 14 4 10 6 -4 10 5 10 21 0 15 7 54
16 87 20 69 22 143 5 200 -6 22 -10 51 -10 65 3 33 -24 124 -55 184 l-25 50
38 33 c22 18 41 33 44 33 3 0 14 -14 24 -31 33 -56 117 -149 134 -149 24 0
240 -240 281 -311 42 -75 57 -84 100 -57 28 18 32 25 27 50 -6 32 0 35 25 12
17 -15 21 -15 52 5 18 11 42 30 53 42 19 21 19 21 -18 55 -65 59 -116 57 -129
-5 -8 -40 -16 -48 -32 -31 -9 10 -9 11 1 6 6 -4 12 -2 12 3 0 6 -5 11 -11 11
-6 0 -8 7 -5 16 4 11 1 14 -12 12 -17 -3 -153 140 -228 237 l-27 36 32 33 32
33 -58 36 c-78 48 -175 136 -169 153 3 7 -3 16 -14 19 -21 7 -100 80 -100 94
0 4 23 6 50 3 40 -4 50 -2 50 11 0 10 17 19 53 27 120 25 275 124 328 209 l15
24 55 -26 c134 -65 286 -33 417 87 l45 41 -6 -31 c-15 -76 -37 -266 -39 -334
l-3 -75 30 2 c21 2 42 15 69 44 34 37 44 41 88 43 l49 1 14 -49 c17 -58 19
-119 5 -147 -11 -20 -59 -26 -76 -9 -5 5 -39 11 -74 12 l-65 3 -3 -56 c-3 -50
0 -57 18 -62 26 -7 26 -27 0 -27 -18 0 -20 -7 -20 -63 0 -35 6 -71 13 -80 11
-16 16 -15 64 7 65 31 74 54 39 106 -30 46 -33 58 -9 39 15 -12 16 -12 9 6 -6
18 -6 19 9 4 21 -21 103 -9 144 20 61 43 77 141 45 269 -15 58 -15 66 0 80 12
12 20 13 39 5 14 -7 29 -8 38 -2 24 15 26 11 49 -63 32 -105 85 -200 141 -253
27 -25 49 -50 49 -54 0 -13 88 -91 102 -91 7 0 24 17 36 36 21 32 22 40 11 60
-15 28 -6 42 16 24 20 -16 37 -2 72 57 29 51 24 62 -36 82 -72 24 -107 2 -97
-60 3 -21 2 -40 -4 -44 -5 -3 -10 2 -11 12 0 16 -1 16 -9 -2 l-9 -20 -1 20
c-2 11 -2 24 -1 29 1 5 -5 6 -12 3 -21 -8 -82 60 -111 123 -14 30 -33 85 -43
122 -17 64 -17 67 1 87 10 11 30 21 45 23 15 2 30 12 35 25 8 17 16 20 43 16
41 -7 75 14 93 57 7 17 11 32 9 34 -2 1 -33 16 -69 33 -36 16 -112 65 -170
109 l-105 79 65 7 c130 13 219 63 305 170 l30 38 61 -31 c51 -25 75 -31 133
-32 39 -1 71 -5 71 -10 0 -15 65 -1 123 26 59 28 110 75 137 126 46 89 32 -68
-15 -181 -47 -111 -83 -223 -99 -308 -19 -100 -20 -144 -3 -162 19 -20 47
-170 35 -185 -7 -9 -7 -13 1 -13 6 0 11 -6 11 -14 0 -8 6 -16 13 -19 6 -2 9
-7 6 -11 -3 -3 -20 -1 -38 5 -17 6 -38 8 -46 5 -25 -9 -35 -52 -27 -109 7 -49
9 -52 35 -50 15 1 44 12 63 24 31 19 34 25 29 50 -7 32 0 36 25 14 16 -14 21
-14 54 1 47 23 47 48 1 131 -24 44 -37 83 -42 124 l-6 59 40 0 c22 0 42 3 45
6 3 3 -1 31 -9 62 -20 73 -20 177 -1 222 9 19 36 61 61 93 53 68 44 75 106
-83 22 -58 58 -127 78 -154 43 -57 114 -98 170 -100 31 -1 38 3 43 24 4 19 14
26 40 31 41 6 91 31 109 53 8 9 20 16 27 16 8 0 11 6 8 15 -4 8 -1 15 5 15 6
0 11 7 11 16 0 8 5 12 10 9 6 -3 10 -22 10 -41 0 -46 31 -77 68 -68 48 12 97
39 100 55 1 8 -18 37 -43 64 -35 38 -48 46 -57 37 -7 -7 -20 -12 -30 -12 -15
0 -16 3 -6 26 12 25 10 29 -26 60 -31 26 -42 31 -57 24 -21 -12 -85 -101 -81
-114 3 -10 -27 -46 -39 -46 -4 0 -4 14 1 30 l9 30 -52 0 c-69 0 -117 25 -141
73 -15 32 -18 62 -18 179 0 78 -4 152 -9 165 l-8 23 47 -25 c93 -48 214 -56
227 -16 4 14 20 20 64 24 32 2 78 14 102 25 60 28 73 27 120 -8z m2749 -10140
c0 -5 -4 -10 -10 -10 -5 0 -10 5 -10 10 0 6 5 10 10 10 6 0 10 -4 10 -10z"/>
</g>
</svg>
